<svg width="30" height="35" viewBox="0 0 30 35" fill="none" xmlns="http://www.w3.org/2000/svg">
<path d="M1.77455 34.0242C0.506529 32.8763 0.430867 31.4168 0.535722 30.0631C0.706587 28.1822 1.08071 26.2991 1.63534 24.5219C4.40488 16.4019 9.85355 10.5404 17.4647 6.71524C19.4033 5.74961 21.5121 5.04555 23.7743 4.14839C22.1783 2.52507 19.77 2.08315 18.0309 0.497209C18.9224 0.00921519 19.6672 0.324702 20.2916 0.569608C22.8496 1.58452 25.4201 2.64716 27.9553 3.77003C29.169 4.32005 29.4266 4.91587 28.7927 5.99968C27.5021 8.27526 25.6428 9.93429 23.25 10.9166C23.1546 10.9415 22.9741 10.8357 22.6857 10.707C22.6739 8.51667 25.4218 8.30873 25.9141 6.29277C22.4235 6.38869 19.4254 7.7842 16.5976 9.44128C13.6391 11.1835 10.8986 13.1748 8.67906 15.7951C6.49477 18.3552 4.95988 21.2558 3.63046 24.3576C2.24086 27.4242 1.70172 30.6256 1.77455 34.0242Z" fill="black"/>
</svg>
