<svg width="42" height="38" viewBox="0 0 42 38" fill="none" xmlns="http://www.w3.org/2000/svg">
<g clip-path="url(#clip0_2_121)">
<path d="M40.9307 10.4223C41.3809 12.0724 40.6585 13.3429 39.8412 14.427C38.6841 15.9198 37.3547 17.3049 35.9302 18.5036C29.2234 23.8537 21.4756 25.8579 13.0024 24.9816C10.849 24.7511 8.69294 24.2085 6.30372 23.7461C6.77419 25.9735 8.56532 27.6429 9.17649 29.9158C8.16251 29.8468 7.70488 29.1798 7.31064 28.6372C5.70197 26.4044 4.1085 24.1246 2.57714 21.8131C1.85075 20.6959 1.95461 20.0552 3.07246 19.4834C5.38545 18.2612 7.84556 17.8647 10.3907 18.3258C10.4845 18.3561 10.5796 18.5425 10.7532 18.8063C9.58358 20.6582 7.15623 19.3534 5.65571 20.7868C8.6484 22.586 11.9261 23.0249 15.2013 23.1517C18.6323 23.2772 22.0139 23.0753 25.2953 22.0629C28.5145 21.0823 31.37 19.465 34.1607 17.5675C36.9832 15.7321 39.1617 13.325 40.9307 10.4223Z" fill="white"/>
</g>
<defs>
<clipPath id="clip0_2_121">
<rect width="28.3944" height="34.4457" fill="white" transform="translate(41.5176 10.6123) rotate(107.943)"/>
</clipPath>
</defs>
</svg>
