<svg width="42" height="44" viewBox="0 0 42 44" fill="none" xmlns="http://www.w3.org/2000/svg">
<g clip-path="url(#clip0_2_417)">
<path d="M41.3506 13.0051C40.475 11.5357 39.059 11.174 37.7113 11.01C35.8335 10.8069 33.9136 10.8027 32.062 10.9963C23.5555 12.1116 16.7353 16.2985 11.4854 23.0067C10.1568 24.717 9.05097 26.6458 7.72567 28.6868C6.44865 26.8022 6.48992 24.3541 5.27774 22.3366C4.62365 23.1145 4.7862 23.9068 4.90327 24.5673C5.39426 27.2751 5.92959 30.0045 6.53091 32.7113C6.83101 34.0096 7.36439 34.3795 8.55186 33.9716C11.0371 33.1547 13.03 31.6587 14.4645 29.5064C14.5077 29.4178 14.4395 29.22 14.3702 28.9119C12.2251 28.4687 11.4798 31.1218 9.40638 31.2072C10.1882 27.804 12.1471 25.1396 14.3289 22.6937C16.6199 20.1365 19.1121 17.8421 22.1184 16.1824C25.0587 14.5454 28.2048 13.6121 31.5078 12.9199C34.7881 12.1618 38.033 12.264 41.3506 13.0051Z" fill="black"/>
</g>
<defs>
<clipPath id="clip0_2_417">
<rect width="28.3944" height="34.4457" fill="white" transform="matrix(-0.898735 -0.438492 -0.438492 0.898735 41.6211 12.4507)"/>
</clipPath>
</defs>
</svg>
